<svg xmlns="http://www.w3.org/2000/svg" width="195.142" height="191" viewBox="0 0 195.142 191">
  <g id="research-left-svgrepo-com" transform="translate(7 7)">
    <circle id="secondary" cx="28.5" cy="28.5" r="28.5" transform="translate(98 41)" fill="#2ca9bc"/>
    <path id="primary" d="M7,102V54.5M45,102V83m95,0L113.115,56.115M64,35.5A28.5,28.5,0,1,0,92.5,7,28.5,28.5,0,0,0,64,35.5Z" transform="translate(34 34)" fill="none" stroke="#000" stroke-linecap="round" stroke-linejoin="round" stroke-width="20"/>
    <path id="primary-2" data-name="primary" d="M136,136v28.5a9.5,9.5,0,0,1-9.5,9.5H12.5A9.5,9.5,0,0,1,3,164.5V12.5A9.5,9.5,0,0,1,12.5,3h114" fill="none" stroke="#000" stroke-linecap="round" stroke-linejoin="round" stroke-width="20"/>
  </g>
</svg>
