<svg xmlns="http://www.w3.org/2000/svg" width="168.682" height="172.124" viewBox="0 0 168.682 172.124">
  <g id="Group_25" data-name="Group 25" transform="translate(-834.627 -238.938)">
    <path id="Path_13" data-name="Path 13" d="M88.9,26.83H8.207A6.209,6.209,0,0,0,2,33.037V169.594A6.209,6.209,0,0,0,8.207,175.8H144.764a6.209,6.209,0,0,0,6.207-6.207V88.9a6.207,6.207,0,1,0-12.414,0v74.486H14.414V39.244H88.9a6.207,6.207,0,1,0,0-12.414ZM33.036,144.766h86.9a6.207,6.207,0,0,0,0-12.414h-86.9a6.207,6.207,0,0,0,0,12.414Zm0-24.829H57.864a6.207,6.207,0,1,0,0-12.414H33.036a6.207,6.207,0,1,0,0,12.414ZM149.153,3.82C146.732,1.393,176.409,31.069,149.153,3.82ZM33.036,95.109H57.864a6.207,6.207,0,0,0,0-12.414H33.036a6.207,6.207,0,0,0,0,12.414Zm0-24.829H64.072a6.207,6.207,0,0,0,0-12.414H33.036a6.207,6.207,0,1,0,0,12.414Z" transform="translate(832.627 235.261)" fill-rule="evenodd"/>
    <path id="secondary" d="M10,27.444,29.444,46.889,68.333,8" transform="translate(920.834 266.111)" fill="none" stroke="#2ca9bc" stroke-linecap="round" stroke-linejoin="round" stroke-width="20"/>
  </g>
</svg>
