<svg xmlns="http://www.w3.org/2000/svg" width="172.802" height="172.124" viewBox="0 0 172.802 172.124">
  <g id="Group_35" data-name="Group 35" transform="translate(-860.198 -261.876)">
    <path id="Path_13" data-name="Path 13" d="M88.9,26.83H8.207A6.209,6.209,0,0,0,2,33.037V169.594A6.209,6.209,0,0,0,8.207,175.8H144.764a6.209,6.209,0,0,0,6.207-6.207V88.9c0-3.426-2.781,1.963-6.207,1.963s-6.207-5.39-6.207-1.963v74.486H14.414V39.244H88.9a6.207,6.207,0,1,0,0-12.414ZM33.036,144.766h86.9a6.207,6.207,0,0,0,0-12.414h-86.9a6.207,6.207,0,0,0,0,12.414Zm0-24.829H57.864a6.207,6.207,0,1,0,0-12.414H33.036a6.207,6.207,0,1,0,0,12.414ZM149.153,3.82C146.732,1.393,176.409,31.069,149.153,3.82ZM33.036,95.109H57.864a6.207,6.207,0,0,0,0-12.414H33.036a6.207,6.207,0,0,0,0,12.414Zm0-24.829H64.072a6.207,6.207,0,0,0,0-12.414H33.036a6.207,6.207,0,1,0,0,12.414Z" transform="translate(858.198 258.199)" fill-rule="evenodd"/>
    <line id="secondary" x2="31.416" y2="31.415" transform="translate(984 290.786) rotate(45)" fill="none" stroke="#2ca9bc" stroke-linecap="round" stroke-linejoin="round" stroke-width="15"/>
    <line id="secondary-2" data-name="secondary" x1="31.416" y2="31.416" transform="translate(984 290.786) rotate(45)" fill="none" stroke="#2ca9bc" stroke-linecap="round" stroke-linejoin="round" stroke-width="15"/>
    <g id="Path_14" data-name="Path 14" transform="translate(935 264)" fill="none">
      <path d="M49,0A49,49,0,1,1,0,49,49,49,0,0,1,49,0Z" stroke="none"/>
      <path d="M 49 15 C 30.25233459472656 15 15 30.25233459472656 15 49 C 15 67.74766540527344 30.25233459472656 83 49 83 C 67.74766540527344 83 83 67.74766540527344 83 49 C 83 30.25233459472656 67.74766540527344 15 49 15 M 49 0 C 76.06194305419922 0 98 21.93805694580078 98 49 C 98 76.06194305419922 76.06194305419922 98 49 98 C 21.93805694580078 98 0 76.06194305419922 0 49 C 0 21.93805694580078 21.93805694580078 0 49 0 Z" stroke="none" fill="#2ca9bc"/>
    </g>
  </g>
</svg>
